<?xml version="1.0" encoding="UTF-8" standalone="no"?>
<!-- Created with Inkscape (http://www.inkscape.org/) -->

<svg
   xmlns:dc="http://purl.org/dc/elements/1.1/"
   xmlns:cc="http://creativecommons.org/ns#"
   xmlns:rdf="http://www.w3.org/1999/02/22-rdf-syntax-ns#"
   xmlns:svg="http://www.w3.org/2000/svg"
   xmlns="http://www.w3.org/2000/svg"
   xmlns:sodipodi="http://sodipodi.sourceforge.net/DTD/sodipodi-0.dtd"
   xmlns:inkscape="http://www.inkscape.org/namespaces/inkscape"
   width="296"
   height="128"
   viewBox="0 0 295.99999 128"
   id="svg2"
   version="1.1"
   inkscape:version="0.91 r13725"
   sodipodi:docname="flow.svg">
  <defs
     id="defs4" />
  <sodipodi:namedview
     id="base"
     pagecolor="#ffffff"
     bordercolor="#666666"
     borderopacity="1.0"
     inkscape:pageopacity="0"
     inkscape:pageshadow="2"
     inkscape:zoom="0.70710678"
     inkscape:cx="340.43414"
     inkscape:cy="-1.1202201"
     inkscape:document-units="px"
     inkscape:current-layer="layer2"
     showgrid="false"
     inkscape:snap-bbox="true"
     inkscape:bbox-paths="true"
     inkscape:snap-text-baseline="true"
     inkscape:snap-page="true"
     inkscape:bbox-nodes="true"
     units="px"
     inkscape:window-width="1304"
     inkscape:window-height="746"
     inkscape:window-x="54"
     inkscape:window-y="-8"
     inkscape:window-maximized="1"
     showguides="false"
     inkscape:guide-bbox="true"
     inkscape:showpageshadow="false"
     showborder="false">
    <inkscape:grid
       type="xygrid"
       id="grid3336"
       spacingx="2.0000001"
       spacingy="2.0000001"
       empspacing="4" />
    <sodipodi:guide
       position="88.000004,64.000003"
       orientation="0,1"
       id="guide4166" />
    <sodipodi:guide
       position="8.0000004,128.00001"
       orientation="1,0"
       id="guide4168" />
    <sodipodi:guide
       position="36.000002,96.000005"
       orientation="1,0"
       id="guide4170" />
    <sodipodi:guide
       position="72.000004,92.000005"
       orientation="1,0"
       id="guide4172" />
    <sodipodi:guide
       position="128.00001,86.000004"
       orientation="1,0"
       id="guide4174" />
    <sodipodi:guide
       position="232.00001,64.000003"
       orientation="1,0"
       id="guide4176" />
    <sodipodi:guide
       position="232.00001,104.00001"
       orientation="0,1"
       id="guide4201" />
    <sodipodi:guide
       position="128.00001,86.000004"
       orientation="0,1"
       id="guide4203" />
    <sodipodi:guide
       position="72.000004,74.000004"
       orientation="0,1"
       id="guide4205" />
    <sodipodi:guide
       position="8.0000004,70.000003"
       orientation="0,1"
       id="guide4207" />
    <sodipodi:guide
       position="36.000002,72.000004"
       orientation="0,1"
       id="guide4209" />
    <sodipodi:guide
       position="432.00002,168.00001"
       orientation="1,0"
       id="guide4213" />
  </sodipodi:namedview>
  <metadata
     id="metadata7">
    <rdf:RDF>
      <cc:Work
         rdf:about="">
        <dc:format>image/svg+xml</dc:format>
        <dc:type
           rdf:resource="http://purl.org/dc/dcmitype/StillImage" />
        <dc:title />
      </cc:Work>
    </rdf:RDF>
  </metadata>
  <g
     inkscape:groupmode="layer"
     id="layer2"
     inkscape:label="bg">
    <rect
       style="fill:#3465a4;fill-opacity:1;stroke:none;stroke-width:3.54330707;stroke-linecap:round;stroke-miterlimit:4;stroke-dasharray:7.08661417, 14.17322835;stroke-dashoffset:0;stroke-opacity:1"
       id="rect4137"
       width="16"
       height="16"
       x="1.3333333e-006"
       y="56"
       inkscape:export-xdpi="90"
       inkscape:export-ydpi="90" />
    <rect
       style="fill:#3465a4;fill-opacity:1;stroke:none;stroke-width:3.54330707;stroke-linecap:round;stroke-miterlimit:4;stroke-dasharray:7.08661417, 14.17322835;stroke-dashoffset:0;stroke-opacity:1"
       id="rect4137-2"
       width="23.999998"
       height="23.999998"
       x="24.000006"
       y="52"
       inkscape:export-xdpi="90"
       inkscape:export-ydpi="90" />
    <rect
       y="48"
       x="56.000011"
       height="31.999996"
       width="31.999996"
       id="rect4154"
       style="fill:#3465a4;fill-opacity:1;stroke:none;stroke-width:3.54330707;stroke-linecap:round;stroke-miterlimit:4;stroke-dasharray:7.08661417, 14.17322835;stroke-dashoffset:0;stroke-opacity:1"
       inkscape:export-xdpi="90"
       inkscape:export-ydpi="90" />
    <rect
       style="fill:#3465a4;fill-opacity:1;stroke:none;stroke-width:3.54330707;stroke-linecap:round;stroke-miterlimit:4;stroke-dasharray:7.08661417, 14.17322835;stroke-dashoffset:0;stroke-opacity:1"
       id="rect4156"
       width="63.999992"
       height="63.999992"
       x="96.000008"
       y="32.000004"
       inkscape:export-xdpi="90"
       inkscape:export-ydpi="90" />
    <rect
       y="1.1444092e-005"
       x="168.00005"
       height="127.99998"
       width="127.99998"
       id="rect4158"
       style="fill:#3465a4;fill-opacity:1;stroke:none;stroke-width:3.54330707;stroke-linecap:round;stroke-miterlimit:4;stroke-dasharray:7.08661417, 14.17322835;stroke-dashoffset:0;stroke-opacity:1"
       inkscape:export-xdpi="90"
       inkscape:export-ydpi="90" />
    <rect
       inkscape:export-ydpi="90"
       inkscape:export-xdpi="90"
       style="fill:#3465a4;fill-opacity:1;stroke:none;stroke-width:3.54330707;stroke-linecap:round;stroke-miterlimit:4;stroke-dasharray:7.08661417, 14.17322835;stroke-dashoffset:0;stroke-opacity:1"
       id="rect4211"
       width="256"
       height="256"
       x="304.00003"
       y="-64.000008" />
  </g>
  <g
     inkscape:label="Layer 1"
     inkscape:groupmode="layer"
     id="layer1"
     transform="translate(0,-924.36221)"
     style="display:inline"
     sodipodi:insensitive="true">
    <path
       inkscape:connector-curvature="0"
       id="Browser_1"
       style="clip-rule:evenodd;fill:#ffffff;fill-rule:evenodd"
       d="m 13.250001,982.36221 -10.4999994,0 c -0.4125,0 -0.75,0.3375 -0.75,0.75 l 0,10.5 c 0,0.4125 0.3375,0.75 0.75,0.75 l 10.4999994,0 c 0.4125,0 0.75,-0.3375 0.75,-0.75 l 0,-10.5 c 0,-0.4125 -0.3375,-0.75 -0.75,-0.75 z m -9.7499995,1.5 1.5000001,0 0,1.5 -1.5000001,0 0,-1.5 z m 8.9999995,1.5 -5.9999994,0 0,-1.5 5.9999994,0 0,1.5 z" />
    <path
       d="m 43.000004,980.36221 -14,0 c -0.55,0 -1,0.45 -1,1 l 0,14 c 0,0.55 0.45,1 1,1 l 14,0 c 0.55,0 1,-0.45 1,-1 l 0,-14 c 0,-0.55 -0.45,-1 -1,-1 z m -13,2 2,0 0,2 -2,0 0,-2 z m 12,2 -8,0 0,-2 8,0 0,2 z"
       style="clip-rule:evenodd;fill:#ffffff;fill-rule:evenodd"
       id="path4189"
       inkscape:connector-curvature="0" />
    <path
       inkscape:connector-curvature="0"
       id="path4191"
       style="clip-rule:evenodd;fill:#ffffff;fill-rule:evenodd"
       d="m 80.250007,978.36221 -17.499999,0 c -0.6875,0 -1.25,0.5625 -1.25,1.25 l 0,17.49999 c 0,0.6875 0.5625,1.25 1.25,1.25 l 17.499999,0 c 0.687499,0 1.250001,-0.5625 1.250001,-1.25 l 0,-17.49999 c 0,-0.6875 -0.562502,-1.25 -1.250001,-1.25 z m -16.249999,2.5 2.5,0 0,2.5 -2.5,0 0,-2.5 z m 14.999999,2.5 -10,0 0,-2.5 10,0 0,2.5 z" />
    <path
       d="m 147.25,966.36222 -38.5,0 c -1.5125,0 -2.75,1.2375 -2.75,2.75 l 0,38.49998 c 0,1.5126 1.2375,2.75 2.75,2.75 l 38.5,0 c 1.5125,0 2.75,-1.2374 2.75,-2.75 l 0,-38.49998 c 0,-1.5125 -1.2375,-2.75 -2.75,-2.75 z m -35.75,5.5 5.5,0 0,5.5 -5.5,0 0,-5.5 z m 33,5.5 -22,0 0,-5.5 22,0 0,5.5 z"
       style="clip-rule:evenodd;fill:#ffffff;fill-rule:evenodd"
       id="path4193"
       inkscape:connector-curvature="0" />
    <path
       inkscape:connector-curvature="0"
       id="path4195"
       style="clip-rule:evenodd;fill:#ffffff;fill-rule:evenodd"
       d="m 267.00001,948.36226 -70,0 c -2.75,0 -5,2.25 -5,5 l 0,69.99994 c 0,2.7501 2.25,5 5,5 l 70,0 c 2.75,0 5,-2.2499 5,-5 l 0,-69.99994 c 0,-2.75 -2.25,-5 -5,-5 z m -65,10 10,0 0,10 -10,0 0,-10 z m 60,10 -40,0 0,-10 40,0 0,10 z" />
    <path
       d="m 493.25004,918.3622 -122.5,0 c -4.8125,0 -8.75,3.9375 -8.75,8.75 l 0,122.4999 c 0,4.8127 3.9375,8.75 8.75,8.75 l 122.5,0 c 4.8125,0 8.75,-3.9373 8.75,-8.75 l 0,-122.4999 c 0,-4.8125 -3.9375,-8.75 -8.75,-8.75 z m -113.75,17.5 17.5,0 0,17.5 -17.5,0 0,-17.5 z m 105,17.5 -70,0 0,-17.5 70,0 0,17.5 z"
       style="clip-rule:evenodd;fill:#ffffff;fill-rule:evenodd"
       id="path4217"
       inkscape:connector-curvature="0" />
  </g>
</svg>
