<?xml version="1.0" encoding="UTF-8" standalone="no"?>
<!-- Created with Inkscape (http://www.inkscape.org/) -->

<svg
   xmlns:dc="http://purl.org/dc/elements/1.1/"
   xmlns:cc="http://creativecommons.org/ns#"
   xmlns:rdf="http://www.w3.org/1999/02/22-rdf-syntax-ns#"
   xmlns:svg="http://www.w3.org/2000/svg"
   xmlns="http://www.w3.org/2000/svg"
   xmlns:sodipodi="http://sodipodi.sourceforge.net/DTD/sodipodi-0.dtd"
   xmlns:inkscape="http://www.inkscape.org/namespaces/inkscape"
   width="296"
   height="128"
   viewBox="0 0 295.99999 128"
   id="svg2"
   version="1.1"
   inkscape:version="0.91 r13725"
   sodipodi:docname="computer.svg">
  <defs
     id="defs4" />
  <sodipodi:namedview
     id="base"
     pagecolor="#ffffff"
     bordercolor="#666666"
     borderopacity="1.0"
     inkscape:pageopacity="0"
     inkscape:pageshadow="2"
     inkscape:zoom="1"
     inkscape:cx="29.707657"
     inkscape:cy="62.925239"
     inkscape:document-units="px"
     inkscape:current-layer="layer2"
     showgrid="false"
     inkscape:snap-bbox="true"
     inkscape:bbox-paths="true"
     inkscape:snap-text-baseline="true"
     inkscape:snap-page="true"
     inkscape:bbox-nodes="true"
     units="px"
     inkscape:window-width="1304"
     inkscape:window-height="746"
     inkscape:window-x="54"
     inkscape:window-y="-8"
     inkscape:window-maximized="1"
     showguides="false"
     inkscape:guide-bbox="true"
     inkscape:showpageshadow="false"
     showborder="false"
     inkscape:snap-global="true">
    <inkscape:grid
       type="xygrid"
       id="grid3336"
       spacingx="0.99999997"
       spacingy="1"
       empspacing="8" />
    <sodipodi:guide
       position="88.000004,64.000003"
       orientation="0,1"
       id="guide4166" />
    <sodipodi:guide
       position="8.0000004,128.00001"
       orientation="1,0"
       id="guide4168" />
    <sodipodi:guide
       position="36.000002,96.000005"
       orientation="1,0"
       id="guide4170" />
    <sodipodi:guide
       position="72.000004,92.000005"
       orientation="1,0"
       id="guide4172" />
    <sodipodi:guide
       position="128.00001,86.000004"
       orientation="1,0"
       id="guide4174" />
    <sodipodi:guide
       position="232.00001,64.000003"
       orientation="1,0"
       id="guide4176" />
    <sodipodi:guide
       position="232.00001,104.00001"
       orientation="0,1"
       id="guide4201" />
    <sodipodi:guide
       position="128.00001,86.000004"
       orientation="0,1"
       id="guide4203" />
    <sodipodi:guide
       position="72.000004,74.000004"
       orientation="0,1"
       id="guide4205" />
    <sodipodi:guide
       position="8.0000004,70.000003"
       orientation="0,1"
       id="guide4207" />
    <sodipodi:guide
       position="36.000002,72.000004"
       orientation="0,1"
       id="guide4209" />
    <sodipodi:guide
       position="432.00002,168.00001"
       orientation="1,0"
       id="guide4213" />
  </sodipodi:namedview>
  <metadata
     id="metadata7">
    <rdf:RDF>
      <cc:Work
         rdf:about="">
        <dc:format>image/svg+xml</dc:format>
        <dc:type
           rdf:resource="http://purl.org/dc/dcmitype/StillImage" />
        <dc:title></dc:title>
      </cc:Work>
    </rdf:RDF>
  </metadata>
  <g
     inkscape:groupmode="layer"
     id="layer2"
     inkscape:label="bg">
    <rect
       style="fill:#555753;fill-opacity:1;stroke:none;stroke-width:3.54330707;stroke-linecap:round;stroke-miterlimit:4;stroke-dasharray:7.08661417, 14.17322835;stroke-dashoffset:0;stroke-opacity:1"
       id="rect4137"
       width="16"
       height="16"
       x="1.3333333e-006"
       y="56"
       inkscape:export-xdpi="90"
       inkscape:export-ydpi="90" />
    <rect
       style="fill:#555753;fill-opacity:1;stroke:none;stroke-width:3.54330707;stroke-linecap:round;stroke-miterlimit:4;stroke-dasharray:7.08661417, 14.17322835;stroke-dashoffset:0;stroke-opacity:1"
       id="rect4137-2"
       width="23.999998"
       height="23.999998"
       x="24.000006"
       y="52"
       inkscape:export-xdpi="90"
       inkscape:export-ydpi="90" />
    <rect
       y="48"
       x="56.000011"
       height="31.999996"
       width="31.999996"
       id="rect4154"
       style="fill:#555753;fill-opacity:1;stroke:none;stroke-width:3.54330707;stroke-linecap:round;stroke-miterlimit:4;stroke-dasharray:7.08661417, 14.17322835;stroke-dashoffset:0;stroke-opacity:1"
       inkscape:export-xdpi="90"
       inkscape:export-ydpi="90" />
    <rect
       style="fill:#555753;fill-opacity:1;stroke:none;stroke-width:3.54330707;stroke-linecap:round;stroke-miterlimit:4;stroke-dasharray:7.08661417, 14.17322835;stroke-dashoffset:0;stroke-opacity:1"
       id="rect4156"
       width="63.999992"
       height="63.999992"
       x="96.000008"
       y="32.000004"
       inkscape:export-xdpi="90"
       inkscape:export-ydpi="90" />
    <rect
       y="1.1444092e-005"
       x="168.00005"
       height="127.99998"
       width="127.99998"
       id="rect4158"
       style="fill:#555753;fill-opacity:1;stroke:none;stroke-width:3.54330707;stroke-linecap:round;stroke-miterlimit:4;stroke-dasharray:7.08661417, 14.17322835;stroke-dashoffset:0;stroke-opacity:1"
       inkscape:export-xdpi="90"
       inkscape:export-ydpi="90" />
    <rect
       inkscape:export-ydpi="90"
       inkscape:export-xdpi="90"
       style="fill:#555753;fill-opacity:1;stroke:none;stroke-width:3.54330707;stroke-linecap:round;stroke-miterlimit:4;stroke-dasharray:7.08661417, 14.17322835;stroke-dashoffset:0;stroke-opacity:1"
       id="rect4211"
       width="256"
       height="256"
       x="304.00003"
       y="-64.000008" />
  </g>
  <g
     inkscape:label="Layer 1"
     inkscape:groupmode="layer"
     id="layer1"
     transform="translate(0,-924.36221)"
     style="display:inline"
     sodipodi:insensitive="true">
    <g
       id="Computer_1"
       transform="matrix(8.75,0,0,8.75,361,918.3622)"
       style="fill:#ffffff">
      <path
         inkscape:connector-curvature="0"
         style="clip-rule:evenodd;fill:#ffffff;fill-rule:evenodd"
         d="M 15,0 1,0 C 0.447,0 0,0.447 0,1 l 0,11 c 0,0.553 0.447,1 1,1 l 6,0 0,1 -2,0 c -0.553,0 -1,0.447 -1,1 0,0.553 0.447,1 1,1 l 6,0 c 0.553,0 1,-0.447 1,-1 0,-0.553 -0.447,-1 -1,-1 l -2,0 0,-1 6,0 c 0.553,0 1,-0.447 1,-1 L 16,1 C 16,0.447 15.553,0 15,0 Z m -1,11 -12,0 0,-9 12,0 0,9 z"
         id="path4" />
      <path
         inkscape:connector-curvature="0"
         style="clip-rule:evenodd;fill:#ffffff;fill-rule:evenodd"
         d="m 4.5,6 7,0 C 11.776,6 12,5.776 12,5.5 l 0,-1 C 12,4.224 11.776,4 11.5,4 l -7,0 C 4.224,4 4,4.224 4,4.5 l 0,1 C 4,5.776 4.224,6 4.5,6 Z"
         id="path6" />
      <path
         inkscape:connector-curvature="0"
         style="clip-rule:evenodd;fill:#ffffff;fill-rule:evenodd"
         d="m 4.5,9 7,0 C 11.776,9 12,8.776 12,8.5 l 0,-1 C 12,7.224 11.776,7 11.5,7 l -7,0 C 4.224,7 4,7.224 4,7.5 l 0,1 C 4,8.776 4.224,9 4.5,9 Z"
         id="path8" />
    </g>
    <g
       style="fill:#ffffff"
       transform="matrix(5,0,0,5,191.00001,948.3622)"
       id="g3383">
      <path
         id="path3385"
         d="M 15,0 1,0 C 0.447,0 0,0.447 0,1 l 0,11 c 0,0.553 0.447,1 1,1 l 6,0 0,1 -2,0 c -0.553,0 -1,0.447 -1,1 0,0.553 0.447,1 1,1 l 6,0 c 0.553,0 1,-0.447 1,-1 0,-0.553 -0.447,-1 -1,-1 l -2,0 0,-1 6,0 c 0.553,0 1,-0.447 1,-1 L 16,1 C 16,0.447 15.553,0 15,0 Z m -1,11 -12,0 0,-9 12,0 0,9 z"
         style="clip-rule:evenodd;fill:#ffffff;fill-rule:evenodd"
         inkscape:connector-curvature="0" />
      <path
         id="path3387"
         d="m 4.5,6 7,0 C 11.776,6 12,5.776 12,5.5 l 0,-1 C 12,4.224 11.776,4 11.5,4 l -7,0 C 4.224,4 4,4.224 4,4.5 l 0,1 C 4,5.776 4.224,6 4.5,6 Z"
         style="clip-rule:evenodd;fill:#ffffff;fill-rule:evenodd"
         inkscape:connector-curvature="0" />
      <path
         id="path3389"
         d="m 4.5,9 7,0 C 11.776,9 12,8.776 12,8.5 l 0,-1 C 12,7.224 11.776,7 11.5,7 l -7,0 C 4.224,7 4,7.224 4,7.5 l 0,1 C 4,8.776 4.224,9 4.5,9 Z"
         style="clip-rule:evenodd;fill:#ffffff;fill-rule:evenodd"
         inkscape:connector-curvature="0" />
    </g>
    <g
       id="g3391"
       transform="matrix(2.75,0,0,2.75,106.00001,966.36221)"
       style="fill:#ffffff">
      <path
         inkscape:connector-curvature="0"
         style="clip-rule:evenodd;fill:#ffffff;fill-rule:evenodd"
         d="M 15,0 1,0 C 0.447,0 0,0.447 0,1 l 0,11 c 0,0.553 0.447,1 1,1 l 6,0 0,1 -2,0 c -0.553,0 -1,0.447 -1,1 0,0.553 0.447,1 1,1 l 6,0 c 0.553,0 1,-0.447 1,-1 0,-0.553 -0.447,-1 -1,-1 l -2,0 0,-1 6,0 c 0.553,0 1,-0.447 1,-1 L 16,1 C 16,0.447 15.553,0 15,0 Z m -1,11 -12,0 0,-9 12,0 0,9 z"
         id="path3393" />
      <path
         inkscape:connector-curvature="0"
         style="clip-rule:evenodd;fill:#ffffff;fill-rule:evenodd"
         d="m 4.5,6 7,0 C 11.776,6 12,5.776 12,5.5 l 0,-1 C 12,4.224 11.776,4 11.5,4 l -7,0 C 4.224,4 4,4.224 4,4.5 l 0,1 C 4,5.776 4.224,6 4.5,6 Z"
         id="path3395" />
      <path
         inkscape:connector-curvature="0"
         style="clip-rule:evenodd;fill:#ffffff;fill-rule:evenodd"
         d="m 4.5,9 7,0 C 11.776,9 12,8.776 12,8.5 l 0,-1 C 12,7.224 11.776,7 11.5,7 l -7,0 C 4.224,7 4,7.224 4,7.5 l 0,1 C 4,8.776 4.224,9 4.5,9 Z"
         id="path3397" />
    </g>
    <g
       style="fill:#ffffff"
       transform="matrix(1.25,0,0,1.25,62.000006,978.36221)"
       id="g3399">
      <path
         id="path3401"
         d="M 15,0 1,0 C 0.447,0 0,0.447 0,1 l 0,11 c 0,0.553 0.447,1 1,1 l 6,0 0,1 -2,0 c -0.553,0 -1,0.447 -1,1 0,0.553 0.447,1 1,1 l 6,0 c 0.553,0 1,-0.447 1,-1 0,-0.553 -0.447,-1 -1,-1 l -2,0 0,-1 6,0 c 0.553,0 1,-0.447 1,-1 L 16,1 C 16,0.447 15.553,0 15,0 Z m -1,11 -12,0 0,-9 12,0 0,9 z"
         style="clip-rule:evenodd;fill:#ffffff;fill-rule:evenodd"
         inkscape:connector-curvature="0" />
      <path
         id="path3403"
         d="m 4.5,6 7,0 C 11.776,6 12,5.776 12,5.5 l 0,-1 C 12,4.224 11.776,4 11.5,4 l -7,0 C 4.224,4 4,4.224 4,4.5 l 0,1 C 4,5.776 4.224,6 4.5,6 Z"
         style="clip-rule:evenodd;fill:#ffffff;fill-rule:evenodd"
         inkscape:connector-curvature="0" />
      <path
         id="path3405"
         d="m 4.5,9 7,0 C 11.776,9 12,8.776 12,8.5 l 0,-1 C 12,7.224 11.776,7 11.5,7 l -7,0 C 4.224,7 4,7.224 4,7.5 l 0,1 C 4,8.776 4.224,9 4.5,9 Z"
         style="clip-rule:evenodd;fill:#ffffff;fill-rule:evenodd"
         inkscape:connector-curvature="0" />
    </g>
    <g
       id="g3407"
       transform="translate(28.000006,980.36221)"
       style="fill:#ffffff">
      <path
         inkscape:connector-curvature="0"
         style="clip-rule:evenodd;fill:#ffffff;fill-rule:evenodd"
         d="M 15,0 1,0 C 0.447,0 0,0.447 0,1 l 0,11 c 0,0.553 0.447,1 1,1 l 6,0 0,1 -2,0 c -0.553,0 -1,0.447 -1,1 0,0.553 0.447,1 1,1 l 6,0 c 0.553,0 1,-0.447 1,-1 0,-0.553 -0.447,-1 -1,-1 l -2,0 0,-1 6,0 c 0.553,0 1,-0.447 1,-1 L 16,1 C 16,0.447 15.553,0 15,0 Z m -1,11 -12,0 0,-9 12,0 0,9 z"
         id="path3409" />
      <path
         inkscape:connector-curvature="0"
         style="clip-rule:evenodd;fill:#ffffff;fill-rule:evenodd"
         d="m 4.5,6 7,0 C 11.776,6 12,5.776 12,5.5 l 0,-1 C 12,4.224 11.776,4 11.5,4 l -7,0 C 4.224,4 4,4.224 4,4.5 l 0,1 C 4,5.776 4.224,6 4.5,6 Z"
         id="path3411" />
      <path
         inkscape:connector-curvature="0"
         style="clip-rule:evenodd;fill:#ffffff;fill-rule:evenodd"
         d="m 4.5,9 7,0 C 11.776,9 12,8.776 12,8.5 l 0,-1 C 12,7.224 11.776,7 11.5,7 l -7,0 C 4.224,7 4,7.224 4,7.5 l 0,1 C 4,8.776 4.224,9 4.5,9 Z"
         id="path3413" />
    </g>
    <path
       style="clip-rule:evenodd;fill:#ffffff;fill-rule:evenodd"
       d="m 13.25,982.36221 -10.5,0 c -0.41475,0 -0.75,0.33525 -0.75,0.75 l 0,8.5625 c 0,0.41475 0.33525,0.75 0.75,0.75 l 4.5,0 0,0.75 -1.5,0 c -0.41475,0 -0.75,0.33525 -0.75,0.75 0,0.41475 0.33525,0.75 0.75,0.75 l 4.5,0 c 0.41475,0 0.75,-0.33525 0.75,-0.75 0,-0.41475 -0.33525,-0.75 -0.75,-0.75 l -1.5,0 0,-0.75 4.5,0 c 0.41475,0 0.75,-0.33525 0.75,-0.75 l 0,-8.5625 c 0,-0.41475 -0.33525,-0.75 -0.75,-0.75 z"
       id="path4243"
       inkscape:connector-curvature="0"
       sodipodi:nodetypes="sssssccssssssccssss" />
    <path
       style="clip-rule:evenodd;fill:#555753;fill-opacity:1;fill-rule:evenodd"
       d="m 12,990.36221 -8,0 0,-6 8,0 0,6 z"
       id="path4232"
       inkscape:connector-curvature="0" />
    <rect
       style="fill:#ffffff;fill-opacity:1;stroke:none;stroke-width:5;stroke-linecap:round;stroke-linejoin:round;stroke-miterlimit:4;stroke-dasharray:none;stroke-dashoffset:0;stroke-opacity:1"
       id="rect4245"
       width="6"
       height="2.0000274"
       x="5"
       y="985.36218" />
  </g>
</svg>
