<?xml version="1.0" encoding="UTF-8" standalone="no"?>
<!-- Created with Inkscape (http://www.inkscape.org/) -->

<svg
   xmlns:dc="http://purl.org/dc/elements/1.1/"
   xmlns:cc="http://creativecommons.org/ns#"
   xmlns:rdf="http://www.w3.org/1999/02/22-rdf-syntax-ns#"
   xmlns:svg="http://www.w3.org/2000/svg"
   xmlns="http://www.w3.org/2000/svg"
   xmlns:sodipodi="http://sodipodi.sourceforge.net/DTD/sodipodi-0.dtd"
   xmlns:inkscape="http://www.inkscape.org/namespaces/inkscape"
   width="296"
   height="128"
   viewBox="0 0 295.99999 128"
   id="svg2"
   version="1.1"
   inkscape:version="0.91 r13725"
   sodipodi:docname="docs.svg">
  <defs
     id="defs4" />
  <sodipodi:namedview
     id="base"
     pagecolor="#ffffff"
     bordercolor="#666666"
     borderopacity="1.0"
     inkscape:pageopacity="0"
     inkscape:pageshadow="2"
     inkscape:zoom="1"
     inkscape:cx="34.5"
     inkscape:cy="44.422825"
     inkscape:document-units="px"
     inkscape:current-layer="layer2"
     showgrid="false"
     inkscape:snap-bbox="true"
     inkscape:bbox-paths="true"
     inkscape:snap-text-baseline="true"
     inkscape:snap-page="true"
     inkscape:bbox-nodes="true"
     units="px"
     inkscape:window-width="1304"
     inkscape:window-height="746"
     inkscape:window-x="54"
     inkscape:window-y="-8"
     inkscape:window-maximized="1"
     showguides="false"
     inkscape:guide-bbox="true"
     inkscape:showpageshadow="false"
     showborder="false">
    <inkscape:grid
       type="xygrid"
       id="grid3336"
       spacingx="2.0000001"
       spacingy="2.0000001"
       empspacing="4" />
    <sodipodi:guide
       position="88.000004,64.000003"
       orientation="0,1"
       id="guide4166" />
    <sodipodi:guide
       position="8.0000004,128.00001"
       orientation="1,0"
       id="guide4168" />
    <sodipodi:guide
       position="36.000002,96.000005"
       orientation="1,0"
       id="guide4170" />
    <sodipodi:guide
       position="72.000004,92.000005"
       orientation="1,0"
       id="guide4172" />
    <sodipodi:guide
       position="128.00001,86.000004"
       orientation="1,0"
       id="guide4174" />
    <sodipodi:guide
       position="232.00001,64.000003"
       orientation="1,0"
       id="guide4176" />
    <sodipodi:guide
       position="232.00001,104.00001"
       orientation="0,1"
       id="guide4201" />
    <sodipodi:guide
       position="128.00001,86.000004"
       orientation="0,1"
       id="guide4203" />
    <sodipodi:guide
       position="72.000004,74.000004"
       orientation="0,1"
       id="guide4205" />
    <sodipodi:guide
       position="8.0000004,70.000003"
       orientation="0,1"
       id="guide4207" />
    <sodipodi:guide
       position="36.000002,72.000004"
       orientation="0,1"
       id="guide4209" />
    <sodipodi:guide
       position="432.00002,168.00001"
       orientation="1,0"
       id="guide4213" />
  </sodipodi:namedview>
  <metadata
     id="metadata7">
    <rdf:RDF>
      <cc:Work
         rdf:about="">
        <dc:format>image/svg+xml</dc:format>
        <dc:type
           rdf:resource="http://purl.org/dc/dcmitype/StillImage" />
        <dc:title />
      </cc:Work>
    </rdf:RDF>
  </metadata>
  <g
     inkscape:groupmode="layer"
     id="layer2"
     inkscape:label="bg">
    <rect
       style="fill:#555753;fill-opacity:1;stroke:none;stroke-width:3.54330707;stroke-linecap:round;stroke-miterlimit:4;stroke-dasharray:7.08661417, 14.17322835;stroke-dashoffset:0;stroke-opacity:1"
       id="rect4137"
       width="16"
       height="16"
       x="1.3333333e-006"
       y="56"
       inkscape:export-xdpi="90"
       inkscape:export-ydpi="90" />
    <rect
       style="fill:#555753;fill-opacity:1;stroke:none;stroke-width:3.54330707;stroke-linecap:round;stroke-miterlimit:4;stroke-dasharray:7.08661417, 14.17322835;stroke-dashoffset:0;stroke-opacity:1"
       id="rect4137-2"
       width="23.999998"
       height="23.999998"
       x="24.000006"
       y="52"
       inkscape:export-xdpi="90"
       inkscape:export-ydpi="90" />
    <rect
       y="48"
       x="56.000011"
       height="31.999996"
       width="31.999996"
       id="rect4154"
       style="fill:#555753;fill-opacity:1;stroke:none;stroke-width:3.54330707;stroke-linecap:round;stroke-miterlimit:4;stroke-dasharray:7.08661417, 14.17322835;stroke-dashoffset:0;stroke-opacity:1"
       inkscape:export-xdpi="90"
       inkscape:export-ydpi="90" />
    <rect
       style="fill:#555753;fill-opacity:1;stroke:none;stroke-width:3.54330707;stroke-linecap:round;stroke-miterlimit:4;stroke-dasharray:7.08661417, 14.17322835;stroke-dashoffset:0;stroke-opacity:1"
       id="rect4156"
       width="63.999992"
       height="63.999992"
       x="96.000008"
       y="32.000004"
       inkscape:export-xdpi="90"
       inkscape:export-ydpi="90" />
    <rect
       y="1.1444092e-005"
       x="168.00005"
       height="127.99998"
       width="127.99998"
       id="rect4158"
       style="fill:#555753;fill-opacity:1;stroke:none;stroke-width:3.54330707;stroke-linecap:round;stroke-miterlimit:4;stroke-dasharray:7.08661417, 14.17322835;stroke-dashoffset:0;stroke-opacity:1"
       inkscape:export-xdpi="90"
       inkscape:export-ydpi="90" />
    <rect
       inkscape:export-ydpi="90"
       inkscape:export-xdpi="90"
       style="fill:#555753;fill-opacity:1;stroke:none;stroke-width:3.54330707;stroke-linecap:round;stroke-miterlimit:4;stroke-dasharray:7.08661417, 14.17322835;stroke-dashoffset:0;stroke-opacity:1"
       id="rect4211"
       width="256"
       height="256"
       x="304.00003"
       y="-64.000008" />
  </g>
  <g
     inkscape:label="Layer 1"
     inkscape:groupmode="layer"
     id="layer1"
     transform="translate(0,-924.36221)"
     style="display:inline"
     sodipodi:insensitive="true">
    <path
       style="fill:#ffffff;fill-opacity:1;stroke:none;stroke-width:5;stroke-linecap:round;stroke-linejoin:round;stroke-miterlimit:4;stroke-dasharray:none;stroke-dashoffset:0;stroke-opacity:1"
       d="m 432.23949,918.25283 c -20.74489,0 -38.04216,14.92437 -41.36922,34.74664 -0.62903,3.83026 1.17947,6.56138 6.42163,6.56138 l 13.97904,0 c 5.67549,0 6.98951,-5.04636 6.98951,-6.98951 0,-3.85817 3.13131,-6.98952 6.98952,-6.98952 l 13.97904,0 c 3.85821,0 6.87594,3.95604 6.87594,7.82826 l 0,13.97903 c 0,3.85821 -3.01773,6.15078 -6.87594,6.15078 l -10.48428,0 c -8.73692,0 -10.59785,7.08743 -10.59785,14.81777 l 0,20.96854 c 0,3.8582 3.23088,6.1508 7.10309,6.1508 l 13.97904,0 c 3.85821,0 6.87594,-2.2926 6.87594,-6.1508 l 0,-9.40088 c 13.97903,-5.75936 28.01049,-21.42464 28.01049,-39.6393 0,-23.12132 -18.75463,-42.03319 -41.87595,-42.03319 z m -6.98952,112.04197 c -3.85821,0 -6.98952,3.1313 -6.98952,6.9895 l 0,13.979 c 0,3.8582 3.13131,6.9895 6.98952,6.9895 l 13.97904,0 c 3.85821,0 6.98951,-3.1313 6.98951,-6.9895 l 0,-13.979 c 0,-3.8582 -3.1313,-6.9895 -6.98951,-6.9895 l -13.97904,0 z"
       id="rect3534"
       inkscape:connector-curvature="0" />
    <g
       id="g3464"
       transform="matrix(3.125,0,0,3.125,495.5,780.43939)" />
    <g
       id="g3466"
       transform="matrix(3.125,0,0,3.125,495.5,780.43939)" />
    <g
       id="g3468"
       transform="matrix(3.125,0,0,3.125,495.5,780.43939)" />
    <g
       id="g3470"
       transform="matrix(3.125,0,0,3.125,495.5,780.43939)" />
    <g
       id="g3472"
       transform="matrix(3.125,0,0,3.125,495.5,780.43939)" />
    <g
       id="g3474"
       transform="matrix(3.125,0,0,3.125,495.5,780.43939)" />
    <g
       id="g3476"
       transform="matrix(3.125,0,0,3.125,495.5,780.43939)" />
    <g
       id="g3478"
       transform="matrix(3.125,0,0,3.125,495.5,780.43939)" />
    <g
       id="g3480"
       transform="matrix(3.125,0,0,3.125,495.5,780.43939)" />
    <g
       id="g3482"
       transform="matrix(3.125,0,0,3.125,495.5,780.43939)" />
    <g
       id="g3484"
       transform="matrix(3.125,0,0,3.125,495.5,780.43939)" />
    <g
       id="g3486"
       transform="matrix(3.125,0,0,3.125,495.5,780.43939)" />
    <g
       id="g3488"
       transform="matrix(3.125,0,0,3.125,495.5,780.43939)" />
    <g
       id="g3490"
       transform="matrix(3.125,0,0,3.125,495.5,780.43939)" />
    <g
       id="g3492"
       transform="matrix(3.125,0,0,3.125,495.5,780.43939)" />
    <path
       inkscape:connector-curvature="0"
       id="path3539"
       d="m 232.34309,948.3622 c -11.85422,0 -21.73838,8.52821 -23.63955,19.8552 -0.35945,2.1887 0.67398,3.7494 3.6695,3.7494 l 7.98802,0 c 3.24314,0 3.99401,-2.8836 3.99401,-3.994 0,-2.2047 1.78932,-3.99403 3.99401,-3.99403 l 7.98802,0 c 2.2047,0 3.92911,2.26063 3.92911,4.47333 l 0,7.988 c 0,2.2047 -1.72441,3.5147 -3.92911,3.5147 l -5.99101,0 c -4.99253,0 -6.05592,4.05 -6.05592,8.4673 l 0,11.982 c 0,2.2047 1.84622,3.5148 4.05891,3.5148 l 7.98802,0 c 2.2047,0 3.92911,-1.3101 3.92911,-3.5148 l 0,-5.3719 c 7.98802,-3.2911 16.006,-12.2427 16.006,-22.651 0,-13.21222 -10.71693,-24.019 -23.92912,-24.019 z m -3.99401,64.024 c -2.20469,0 -3.99401,1.7893 -3.99401,3.994 l 0,7.988 c 0,2.2047 1.78932,3.994 3.99401,3.994 l 7.98802,0 c 2.2047,0 3.99401,-1.7893 3.99401,-3.994 l 0,-7.988 c 0,-2.2047 -1.78931,-3.994 -3.99401,-3.994 l -7.98802,0 z"
       style="fill:#ffffff;fill-opacity:1;stroke:none;stroke-width:5;stroke-linecap:round;stroke-linejoin:round;stroke-miterlimit:4;stroke-dasharray:none;stroke-dashoffset:0;stroke-opacity:1" />
    <path
       style="fill:#ffffff;fill-opacity:1;stroke:none;stroke-width:5;stroke-linecap:round;stroke-linejoin:round;stroke-miterlimit:4;stroke-dasharray:none;stroke-dashoffset:0;stroke-opacity:1"
       d="m 128.03938,966.3622 c -6.51982,0 -11.95611,4.69052 -13.00176,10.9204 -0.19769,1.2037 0.37069,2.0621 2.01823,2.0621 l 4.39341,0 c 1.78373,0 2.19671,-1.5859 2.19671,-2.1967 0,-1.2126 0.98412,-2.1967 2.1967,-2.1967 l 4.39341,0 c 1.21259,0 2.16101,1.2434 2.16101,2.4603 l 0,4.3934 c 0,1.2126 -0.94842,1.9331 -2.16101,1.9331 l -3.29505,0 c -2.74589,0 -3.33076,2.2275 -3.33076,4.657 l 0,6.5901 c 0,1.2126 1.01542,1.9332 2.2324,1.9332 l 4.39341,0 c 1.21259,0 2.16101,-0.7206 2.16101,-1.9332 l 0,-2.9545 c 4.39342,-1.8101 8.80331,-6.7335 8.80331,-12.458 0,-7.26677 -5.89432,-13.2105 -13.16102,-13.2105 z m -2.19671,35.2132 c -1.21258,0 -2.1967,0.9841 -2.1967,2.1967 l 0,4.3934 c 0,1.2126 0.98412,2.1967 2.1967,2.1967 l 4.39341,0 c 1.21259,0 2.19671,-0.9841 2.19671,-2.1967 l 0,-4.3934 c 0,-1.2126 -0.98412,-2.1967 -2.19671,-2.1967 l -4.39341,0 z"
       id="path3541"
       inkscape:connector-curvature="0" />
    <path
       inkscape:connector-curvature="0"
       id="path3543"
       d="m 71.926994,978.3622 c -2.963554,0 -5.434595,2.13205 -5.909891,4.96382 -0.08986,0.54713 0.168496,0.93732 0.917377,0.93732 l 1.997005,0 c 0.810786,0 0.998505,-0.72087 0.998505,-0.9985 0,-0.55119 0.447327,-0.9985 0.9985,-0.9985 l 1.997004,0 c 0.551177,0 0.982277,0.56518 0.982277,1.11831 l 0,1.997 c 0,0.55119 -0.4311,0.87869 -0.982277,0.87869 l -1.49775,0 c -1.248132,0 -1.513982,1.0125 -1.513982,2.11686 l 0,2.9955 c 0,0.5511 0.461555,0.8787 1.014728,0.8787 l 1.997004,0 c 0.551177,0 0.982277,-0.3276 0.982277,-0.8787 l 0,-1.343 c 1.997009,-0.8228 4.001505,-3.06068 4.001505,-5.66273 0,-3.30307 -2.679236,-6.00477 -5.982282,-6.00477 z m -0.998504,16.006 c -0.551173,0 -0.9985,0.4473 -0.9985,0.9985 l 0,1.997 c 0,0.5512 0.447327,0.9985 0.9985,0.9985 l 1.997004,0 c 0.551177,0 0.998505,-0.4473 0.998505,-0.9985 l 0,-1.997 c 0,-0.5512 -0.447328,-0.9985 -0.998505,-0.9985 l -1.997004,0 z"
       style="fill:#ffffff;fill-opacity:1;stroke:none;stroke-width:5;stroke-linecap:round;stroke-linejoin:round;stroke-miterlimit:4;stroke-dasharray:none;stroke-dashoffset:0;stroke-opacity:1" />
    <path
       style="fill:#ffffff;fill-opacity:1;stroke:none;stroke-width:5;stroke-linecap:round;stroke-linejoin:round;stroke-miterlimit:4;stroke-dasharray:none;stroke-dashoffset:0;stroke-opacity:1"
       d="m 35.991596,980.3622 c -2.370842,0 -4.347676,1.70564 -4.727911,3.97105 -0.07189,0.43772 0.134795,0.74986 0.733901,0.74986 l 1.597604,0 c 0.648629,0 0.798803,-0.57669 0.798803,-0.79879 0,-0.44096 0.357861,-0.79881 0.798801,-0.79881 l 1.597603,0 c 0.440942,0 0.785821,0.45214 0.785821,0.89465 l 0,1.5976 c 0,0.44096 -0.344879,0.70295 -0.785821,0.70295 l -1.198201,0 c -0.998505,0 -1.211185,0.81001 -1.211185,1.69349 l 0,2.3964 c 0,0.44088 0.369243,0.70295 0.811783,0.70295 l 1.597603,0 c 0.440942,0 0.785821,-0.26207 0.785821,-0.70295 l 0,-1.0744 c 1.597607,-0.65823 3.201205,-2.44854 3.201205,-4.53018 0,-2.64246 -2.143389,-4.80382 -4.785827,-4.80382 z m -0.798802,12.8048 c -0.44094,0 -0.798801,0.35783 -0.798801,0.7988 l 0,1.5976 c 0,0.44097 0.357861,0.7988 0.798801,0.7988 l 1.597603,0 c 0.440942,0 0.798803,-0.35783 0.798803,-0.7988 l 0,-1.5976 c 0,-0.44097 -0.357861,-0.7988 -0.798803,-0.7988 l -1.597603,0 z"
       id="path3545"
       inkscape:connector-curvature="0" />
    <path
       inkscape:connector-curvature="0"
       id="path3547"
       d="m 8.0561986,982.3622 c -1.7781315,0 -3.260757,1.27923 -3.5459333,2.97829 -0.053917,0.32829 0.1010963,0.56239 0.5504258,0.56239 l 1.198203,0 c 0.4864717,0 0.5991022,-0.43251 0.5991022,-0.59909 0,-0.33072 0.2683958,-0.59911 0.5991008,-0.59911 l 1.1982022,0 c 0.3307065,0 0.5893658,0.33911 0.5893658,0.67099 l 0,1.1982 c 0,0.33072 -0.2586593,0.52721 -0.5893658,0.52721 l -0.8986507,0 c -0.7488788,0 -0.9083888,0.60751 -0.9083888,1.27012 l 0,1.7973 c 0,0.33066 0.2769323,0.52721 0.6088373,0.52721 l 1.1982022,0 c 0.3307065,0 0.5893658,-0.19655 0.5893658,-0.52721 l 0,-0.8058 c 1.1982049,-0.49367 2.4009039,-1.8364 2.4009039,-3.39763 0,-1.98185 -1.607542,-3.60287 -3.5893704,-3.60287 z m -0.5991015,9.6036 c -0.330705,0 -0.5991008,0.26837 -0.5991008,0.5991 l 0,1.1982 c 0,0.33073 0.2683958,0.5991 0.5991008,0.5991 l 1.1982022,0 c 0.3307065,0 0.5991027,-0.26837 0.5991027,-0.5991 l 0,-1.1982 c 0,-0.33073 -0.2683962,-0.5991 -0.5991027,-0.5991 l -1.1982022,0 z"
       style="fill:#ffffff;fill-opacity:1;stroke:none;stroke-width:5;stroke-linecap:round;stroke-linejoin:round;stroke-miterlimit:4;stroke-dasharray:none;stroke-dashoffset:0;stroke-opacity:1" />
  </g>
</svg>
