<?xml version="1.0" encoding="UTF-8" standalone="no"?>
<!-- Created with Inkscape (http://www.inkscape.org/) -->

<svg
   xmlns:dc="http://purl.org/dc/elements/1.1/"
   xmlns:cc="http://creativecommons.org/ns#"
   xmlns:rdf="http://www.w3.org/1999/02/22-rdf-syntax-ns#"
   xmlns:svg="http://www.w3.org/2000/svg"
   xmlns="http://www.w3.org/2000/svg"
   xmlns:sodipodi="http://sodipodi.sourceforge.net/DTD/sodipodi-0.dtd"
   xmlns:inkscape="http://www.inkscape.org/namespaces/inkscape"
   width="57"
   height="57"
   id="svg2"
   version="1.1"
   inkscape:version="0.48.4 r9939"
   sodipodi:docname="OH.landscape.inkscape.svg"
   inkscape:export-filename="C:\Sync\M\General\Personal\FH\PycharmProjects\OH-Auto-Statistical\installer\win\images\OH.landscape.png"
   inkscape:export-xdpi="90"
   inkscape:export-ydpi="90">
  <title
     id="title2986">Open Hydrology logo</title>
  <defs
     id="defs4" />
  <sodipodi:namedview
     id="base"
     pagecolor="#ffffff"
     bordercolor="#666666"
     borderopacity="1.0"
     inkscape:pageopacity="1"
     inkscape:pageshadow="2"
     inkscape:zoom="1"
     inkscape:cx="103.29603"
     inkscape:cy="60.653589"
     inkscape:document-units="px"
     inkscape:current-layer="layer1"
     showgrid="false"
     showguides="false"
     inkscape:guide-bbox="true"
     inkscape:window-width="1303"
     inkscape:window-height="746"
     inkscape:window-x="55"
     inkscape:window-y="-8"
     inkscape:window-maximized="1">
    <inkscape:grid
       type="xygrid"
       id="grid2985"
       empspacing="2"
       visible="true"
       enabled="true"
       snapvisiblegridlinesonly="true"
       spacingx="5px"
       spacingy="5px" />
    <sodipodi:guide
       orientation="0,1"
       position="165,28.5"
       id="guide2997" />
  </sodipodi:namedview>
  <metadata
     id="metadata7">
    <rdf:RDF>
      <cc:Work
         rdf:about="">
        <dc:format>image/svg+xml</dc:format>
        <dc:type
           rdf:resource="http://purl.org/dc/dcmitype/StillImage" />
        <dc:title>Open Hydrology logo</dc:title>
        <dc:date>2014-12-10</dc:date>
        <dc:creator>
          <cc:Agent>
            <dc:title>Florenz A. P. Hollebrandse</dc:title>
          </cc:Agent>
        </dc:creator>
        <dc:rights>
          <cc:Agent>
            <dc:title>Copyright Open Hydrology contributors</dc:title>
          </cc:Agent>
        </dc:rights>
        <dc:publisher>
          <cc:Agent>
            <dc:title>Open Hydrology</dc:title>
          </cc:Agent>
        </dc:publisher>
        <dc:description>Open Hydrology logo based on Egyption hieroglyph letter N water</dc:description>
        <cc:license
           rdf:resource="http://creativecommons.org/licenses/by/4.0/" />
      </cc:Work>
      <cc:License
         rdf:about="http://creativecommons.org/licenses/by/3.0/">
        <cc:permits
           rdf:resource="http://creativecommons.org/ns#Reproduction" />
        <cc:permits
           rdf:resource="http://creativecommons.org/ns#Distribution" />
        <cc:requires
           rdf:resource="http://creativecommons.org/ns#Notice" />
        <cc:requires
           rdf:resource="http://creativecommons.org/ns#Attribution" />
        <cc:permits
           rdf:resource="http://creativecommons.org/ns#DerivativeWorks" />
      </cc:License>
    </rdf:RDF>
  </metadata>
  <g
     inkscape:label="Layer 1"
     inkscape:groupmode="layer"
     id="layer1"
     transform="translate(0,-995.36218)">
    <path
       style="fill:#2e3436;fill-opacity:1;stroke:#2e3436;stroke-width:0.23371594;stroke-linecap:butt;stroke-linejoin:round;stroke-miterlimit:4;stroke-opacity:1;stroke-dasharray:none"
       d="m 3.6229686,1025.8848 c 0.18471,-0.3739 2.0848046,-2.4635 2.7715586,-3.8375 0.583839,-1.1681 0.931651,-2.041 1.492377,-2.0893 0.93502,-0.081 1.876132,0.5542 2.6862788,1.5349 0.810148,0.9808 2.217247,2.8142 3.112673,2.8142 0.895427,0 1.108624,-0.6395 2.131968,-1.7482 1.023344,-1.1086 2.00405,-2.7289 2.728919,-2.6862 0.724869,0.043 1.705574,0.8101 2.302525,1.4923 0.596951,0.6823 2.217247,2.9848 3.027394,3.0274 0.81015,0.043 1.976042,-1.5092 2.345166,-2.0893 0.59695,-0.9381 0.938066,-1.6629 1.876131,-1.9187 0.938066,-0.2559 1.284459,-0.1152 1.748214,0.2558 0.639592,0.5117 2.131969,2.5157 2.600999,2.9847 0.469036,0.4691 1.449737,1.7482 2.089329,1.7482 0.639591,0 1.49238,-1.2791 2.387803,-2.5157 0.760606,-1.0503 1.485352,-1.7852 2.004053,-1.7908 0.697273,-0.01 1.764454,1.1004 2.21725,1.8334 0.453745,0.7346 1.790848,2.3879 2.558357,2.4305 1.065189,0.059 2.728919,-2.3878 3.325866,-3.07 0.596954,-0.6823 1.194647,-1.52 1.705577,-1.4924 0.788825,0.043 4.663448,5.7748 4.647687,6.0121 -0.01988,0.2993 -0.825104,1.0259 -1.023338,1.0661 -0.217012,0.044 -0.57217,-0.1465 -0.89543,-0.5544 -0.895429,-1.1299 -2.170929,-3.6647 -2.899478,-3.7523 -0.445056,-0.053 -3.368505,3.3899 -3.92282,3.8802 -0.32881,0.2909 -1.065981,0.3411 -1.535015,0.2132 -0.469034,-0.1279 -1.300501,-0.7675 -1.726893,-1.3218 -0.52824,-0.6479 -1.977955,-2.7535 -2.281208,-2.7716 -0.575631,0.021 -3.155311,3.3259 -3.709625,3.6244 -0.554307,0.2985 -1.1939,0.3411 -1.705573,0.1279 -0.511672,-0.2132 -2.162924,-2.4067 -2.942114,-3.4538 -0.765647,-1.0288 -1.412453,-1.7156 -2.174606,-1.535 -0.762157,0.1805 -4.178659,4.5624 -4.903529,4.6051 -0.724869,0.043 -1.705574,-1.066 -2.387803,-1.9188 -0.68223,-0.8528 -2.027451,-2.9856 -2.345165,-2.8569 -0.235706,0.096 -2.558361,2.8569 -2.558361,2.8569 0,0 -1.151263,1.2365 -2.089328,1.535 -0.938067,0.2985 -1.620296,-0.4264 -2.004051,-0.6396 -0.383753,-0.2132 -2.4304428,-2.601 -2.6862788,-2.8568 -0.255836,-0.2558 -0.767508,-1.0233 -1.151262,-1.0233 -0.383755,0 -0.938066,0.5969 -1.32182,1.2365 -0.383755,0.6396 -1.32182,2.1746 -1.705574,2.5584 -0.3837543,0.3837 -0.9794097,0.9856 -1.0659841,0.938 -0.086574,-0.047 -0.8041948,-0.6922 -0.7248695,-0.8528 z"
       id="path3000"
       inkscape:connector-curvature="0"
       sodipodi:nodetypes="ssssssssssssssssssssssssssccssszssscsssssszs" />
  </g>
</svg>
